<svg width="24" height="24" viewBox="0 0 24 24" fill="none" xmlns="http://www.w3.org/2000/svg">
<path fill-rule="evenodd" clip-rule="evenodd" d="M10.0002 2.00004C10.0004 1.79149 9.93537 1.5881 9.81424 1.41833C9.69311 1.24856 9.52193 1.12091 9.32467 1.05325C9.1274 0.98558 8.91391 0.981282 8.71408 1.04095C8.51424 1.10063 8.33807 1.22128 8.21021 1.38604L1.21021 10.386C1.07365 10.5616 0.999512 10.7776 0.999512 11C0.999512 11.2224 1.07365 11.4385 1.21021 11.614L8.21021 20.614C8.33807 20.7788 8.51424 20.8995 8.71408 20.9591C8.91391 21.0188 9.1274 21.0145 9.32467 20.9468C9.52193 20.8792 9.69311 20.7515 9.81424 20.5818C9.93537 20.412 10.0004 20.2086 10.0002 20V16.01C15.3792 16.122 17.9632 17.143 19.2612 18.253C20.4952 19.308 20.7212 20.549 20.9562 21.849L21.0172 22.184C21.0621 22.4237 21.193 22.6388 21.3853 22.7887C21.5777 22.9387 21.8182 23.0131 22.0616 22.9981C22.305 22.9831 22.5346 22.8797 22.707 22.7073C22.8795 22.5349 22.9831 22.3054 22.9982 22.062C23.1692 19.314 22.9122 15.332 20.9712 12.001C19.0872 8.76804 15.6942 6.28204 10.0002 6.02204V2.00004Z" fill="#F8F8F8"/>
</svg>
