<svg width="22" height="21" viewBox="0 0 22 21" fill="none" xmlns="http://www.w3.org/2000/svg">
<path d="M1.57129 5.8125C1.57129 5.26549 1.79894 4.74089 2.20415 4.35409C2.60936 3.9673 3.15895 3.75 3.732 3.75H18.2677C18.8408 3.75 19.3904 3.9673 19.7956 4.35409C20.2008 4.74089 20.4284 5.26549 20.4284 5.8125V7.5H1.57129V5.8125ZM1.57129 8.625H20.4284V14.4375C20.4284 14.9845 20.2008 15.5091 19.7956 15.8959C19.3904 16.2827 18.8408 16.5 18.2677 16.5H3.732C3.15895 16.5 2.60936 16.2827 2.20415 15.8959C1.79894 15.5091 1.57129 14.9845 1.57129 14.4375V8.625ZM14.5356 12.3C14.348 12.3 14.1682 12.3711 14.0355 12.4977C13.9029 12.6243 13.8284 12.796 13.8284 12.975C13.8284 13.154 13.9029 13.3257 14.0355 13.4523C14.1682 13.5789 14.348 13.65 14.5356 13.65H16.8927C17.0803 13.65 17.2601 13.5789 17.3927 13.4523C17.5254 13.3257 17.5999 13.154 17.5999 12.975C17.5999 12.796 17.5254 12.6243 17.3927 12.4977C17.2601 12.3711 17.0803 12.3 16.8927 12.3H14.5356Z" fill="#EF7F1A"/>
</svg>
